<svg id="visual" viewBox="0 0 960 540" width="960" height="540" xmlns="http://www.w3.org/2000/svg" xmlns:xlink="http://www.w3.org/1999/xlink" version="1.1"><rect x="0" y="0" width="960" height="540" fill="#292524"></rect><path d="M0 131L22.8 136.3C45.7 141.7 91.3 152.3 137 151.5C182.7 150.7 228.3 138.3 274 138.7C319.7 139 365.3 152 411.2 153.2C457 154.3 503 143.7 548.8 137.2C594.7 130.7 640.3 128.3 686 123.8C731.7 119.3 777.3 112.7 823 116.3C868.7 120 914.3 134 937.2 141L960 148L960 0L937.2 0C914.3 0 868.7 0 823 0C777.3 0 731.7 0 686 0C640.3 0 594.7 0 548.8 0C503 0 457 0 411.2 0C365.3 0 319.7 0 274 0C228.3 0 182.7 0 137 0C91.3 0 45.7 0 22.8 0L0 0Z" fill="#a8a89e"></path><path d="M0 136L22.8 126.2C45.7 116.3 91.3 96.7 137 95.3C182.7 94 228.3 111 274 111C319.7 111 365.3 94 411.2 95.3C457 96.7 503 116.3 548.8 126.3C594.7 136.3 640.3 136.7 686 133.2C731.7 129.7 777.3 122.3 823 117C868.7 111.7 914.3 108.3 937.2 106.7L960 105L960 0L937.2 0C914.3 0 868.7 0 823 0C777.3 0 731.7 0 686 0C640.3 0 594.7 0 548.8 0C503 0 457 0 411.2 0C365.3 0 319.7 0 274 0C228.3 0 182.7 0 137 0C91.3 0 45.7 0 22.8 0L0 0Z" fill="#bfcfd7"></path><path d="M0 92L22.8 90.3C45.7 88.7 91.3 85.3 137 84.8C182.7 84.3 228.3 86.7 274 81.8C319.7 77 365.3 65 411.2 65.3C457 65.7 503 78.3 548.8 83.2C594.7 88 640.3 85 686 85C731.7 85 777.3 88 823 84.3C868.7 80.7 914.3 70.3 937.2 65.2L960 60L960 0L937.2 0C914.3 0 868.7 0 823 0C777.3 0 731.7 0 686 0C640.3 0 594.7 0 548.8 0C503 0 457 0 411.2 0C365.3 0 319.7 0 274 0C228.3 0 182.7 0 137 0C91.3 0 45.7 0 22.8 0L0 0Z" fill="#bfcfd7"></path><path d="M0 49L22.8 44.5C45.7 40 91.3 31 137 29.5C182.7 28 228.3 34 274 40.7C319.7 47.3 365.3 54.7 411.2 55.2C457 55.7 503 49.3 548.8 48C594.7 46.7 640.3 50.3 686 53.5C731.7 56.7 777.3 59.3 823 55C868.7 50.7 914.3 39.3 937.2 33.7L960 28L960 0L937.2 0C914.3 0 868.7 0 823 0C777.3 0 731.7 0 686 0C640.3 0 594.7 0 548.8 0C503 0 457 0 411.2 0C365.3 0 319.7 0 274 0C228.3 0 182.7 0 137 0C91.3 0 45.7 0 22.8 0L0 0Z" fill="#a8a89e"></path></svg>