<svg id="visual" viewBox="0 0 900 600" width="900" height="600" xmlns="http://www.w3.org/2000/svg" xmlns:xlink="http://www.w3.org/1999/xlink" version="1.1"><rect x="0" y="0" width="900" height="600" fill="#292524"></rect><path d="M0 378L16.7 376.7C33.3 375.3 66.7 372.7 100 382C133.3 391.3 166.7 412.7 200 397.7C233.3 382.7 266.7 331.3 300 336.7C333.3 342 366.7 404 400 430.7C433.3 457.3 466.7 448.7 500 420C533.3 391.3 566.7 342.7 600 318.8C633.3 295 666.7 296 700 297.8C733.3 299.7 766.7 302.3 800 310.5C833.3 318.7 866.7 332.3 883.3 339.2L900 346L900 601L883.3 601C866.7 601 833.3 601 800 601C766.7 601 733.3 601 700 601C666.7 601 633.3 601 600 601C566.7 601 533.3 601 500 601C466.7 601 433.3 601 400 601C366.7 601 333.3 601 300 601C266.7 601 233.3 601 200 601C166.7 601 133.3 601 100 601C66.7 601 33.3 601 16.7 601L0 601Z" fill="#cbd5e1" stroke-linecap="round" stroke-linejoin="miter"></path></svg>